<svg xmlns="http://www.w3.org/2000/svg" viewBox="0 0 1543.02 410"><title>Recurso 129</title><g id="Capa_2" data-name="Capa 2"><g id="Capa_1-2" data-name="Capa 1"><path d="M1266.23,31.3v410h287V31.3Zm133.2,34.2h6.8V58.7h6.8v6.8h6.8v6.8H1413v6.8h-6.8V72.3h-6.8Zm-51.2,293.8h-13.7V373h-13.6V359.3h-13.7V345.6h13.7V331.9h13.7v13.7h13.6Zm0-82h-13.7V291h-13.6V277.3h-13.7V263.6h13.7V249.9h13.7v13.7h13.6Zm0-82h-13.7V209h-13.6V195.3h-13.7V181.6h13.7V167.9h13.7v13.7h13.6Zm68.6,143c-.2,2.4-.3,4.9-.3,7.4a95.29,95.29,0,0,0,17.2,54.6h-48a94.54,94.54,0,0,0,17.1-54.7c0-2.5-.1-4.9-.3-7.4a47.78,47.78,0,0,1-40.7-47.3h95.7A47.89,47.89,0,0,1,1416.83,338.3Zm13.4-156.7v13.7h-13.7V209h-13.7V195.3h-13.6V181.6h13.7V167.9h13.7v13.7Zm-20.5,41a27.35,27.35,0,1,1-27.3,27.4h0a27.36,27.36,0,0,1,27.3-27.4Zm47.8-71.7h-95.6V140.7h95.7v10.2Zm9.7-27.7-5,7.2h-12.8l9.1-13.2a13.69,13.69,0,0,0,2.1-7.1,10.77,10.77,0,0,0-3.1-8,11.8,11.8,0,0,0-9-3.8,22.6,22.6,0,0,0-2.6.1v-.1a34.25,34.25,0,0,1,1.2,7.8c0,4.4-.5,8.2-2.8,12.2l-7.1,12h-12.5l10.1-17.2a15.71,15.71,0,0,0,1.7-7,12.61,12.61,0,0,0-12.3-12.8c-4.2,0-7.3,1.2-9.3,3.7v33.3h-10.3V97.1c-2-2.5-5.1-3.7-9.3-3.7a12.08,12.08,0,0,0-9,4.1,11.68,11.68,0,0,0-3.4,8.7,15.71,15.71,0,0,0,1.7,7l10.1,17.2h-12.4l-7.1-12c-2.3-4-2.8-7.7-2.8-12.2a25.91,25.91,0,0,1,1.2-7.8h0a22.6,22.6,0,0,0-2.6-.1,12.16,12.16,0,0,0-9,3.8,10.77,10.77,0,0,0-3.1,8,13.69,13.69,0,0,0,2.1,7.1l9.1,13.2h-12.9l-5-7.2a21.82,21.82,0,0,1-4-13.1,20.66,20.66,0,0,1,6.7-15.8,21.85,21.85,0,0,1,16-6.9,31,31,0,0,1,8.5,1.5,4.62,4.62,0,0,1,.7-.7,21.81,21.81,0,0,1,15.2-5.7,24,24,0,0,1,14.4,4.8,24.48,24.48,0,0,1,14.5-4.8,21.36,21.36,0,0,1,15.2,5.7,4.62,4.62,0,0,1,.7.7,24.55,24.55,0,0,1,8.5-1.5,21.12,21.12,0,0,1,16,6.9,20.57,20.57,0,0,1,6.6,15.8A21.82,21.82,0,0,1,1467.23,123.2Zm45,236.1h-13.7V373h-13.7V359.3h-13.6V345.6h13.7V331.9h13.7v13.7h13.6Zm0-82h-13.7V291h-13.7V277.3h-13.6V263.6h13.7V249.9h13.7v13.7h13.6Zm0-82h-13.7V209h-13.7V195.3h-13.6V181.6h13.7V167.9h13.7v13.7h13.6Z" transform="translate(-10.21 -31.3)" style="fill:#007bc4"/><rect x="1158.69" y="0.1" width="13.8" height="409.8" style="fill:#007bc4"/><g style="isolation:isolate"><path d="M46.74,197.15q-17.5-10.9-26.85-31t-9.35-47.46q0-25.89,9.59-45.54A72.58,72.58,0,0,1,47.22,42.54q17.49-10.9,41-10.91a96.44,96.44,0,0,1,27.45,4.08,98.9,98.9,0,0,1,24.81,11v34a151.75,151.75,0,0,0-26.25-13.06Q101.15,62.8,90.13,62.8a39.61,39.61,0,0,0-22.77,6.83q-10.07,6.83-15.7,19.54T46,118.65q0,27.33,12.1,42.79t32,15.46q11,0,24.09-4.91a151.19,151.19,0,0,0,26.25-13.06v34a98.62,98.62,0,0,1-24.81,11,96.44,96.44,0,0,1-27.45,4.08Q64.24,208.05,46.74,197.15Z" transform="translate(-10.21 -31.3)" style="fill:#007bc4"/><path d="M177.49,190.44q-16.42-17.62-16.42-48.3,0-19.42,7.31-34.16a53.14,53.14,0,0,1,21-22.77q13.66-8,31.88-8,16.54,0,29.24,7.07a49.7,49.7,0,0,1,19.78,20q7.07,12.94,7.07,30a89.2,89.2,0,0,1-1.68,17.5h-81q2.16,13.66,10.07,20.85t20.13,7.19A89.38,89.38,0,0,0,245.45,177a152.22,152.22,0,0,0,23.49-7.79V198a99.81,99.81,0,0,1-21.21,7.31,103.13,103.13,0,0,1-23.37,2.76Q193.91,208.05,177.49,190.44ZM239,109.78q-6.71-7.19-18.22-7.19-10.79,0-17.5,6.83t-8.63,19.78h51.05Q245.69,117,239,109.78Z" transform="translate(-10.21 -31.3)" style="fill:#007bc4"/><path d="M308,36h27.8l57,111.46L449.91,36h26.37V203.74H444.63V105.22l-45.06,90.37H384.71l-45.06-90.37v98.51H308Z" transform="translate(-10.21 -31.3)"/><path d="M516.54,36H550.1V203.74H516.54Z" transform="translate(-10.21 -31.3)"/><path d="M634,66.63H581.74L571.67,36h158.2L719.8,66.63H667.55V203.74H634Z" transform="translate(-10.21 -31.3)"/></g><g style="isolation:isolate"><path d="M10.37,314.22c0-17,9.3-28.31,24.17-28.31A31.76,31.76,0,0,1,52.83,292v8.35c-6-4.53-12.72-7.63-18.29-7.63C25,292.75,18,300.86,18,314.22c0,13.84,6.68,22.26,16.54,22.26,5.57,0,12.25-3.1,18.29-7.63v8.35a31.76,31.76,0,0,1-18.29,6.12C19.36,343.33,10.37,331.72,10.37,314.22Z" transform="translate(-10.21 -31.3)" style="fill:#007bc4"/><path d="M60.78,322c0-12.72,6.84-21.15,18-21.15,9.86,0,16.54,7.55,16.54,18.13a30.31,30.31,0,0,1-.4,4.69H67.62c.56,8.43,5.17,13.44,11.85,13.44,4.21,0,9.22-1.83,13.52-4.21v6.6a28.31,28.31,0,0,1-13.68,3.82C67.78,343.33,60.78,335.06,60.78,322Zm27.75-3.74c0-6.76-3.74-11.37-9.86-11.37s-10,4-10.89,11.37Z" transform="translate(-10.21 -31.3)" style="fill:#007bc4"/><path d="M105.54,302.3h2.07l4.21,2.46a26.48,26.48,0,0,1,12.8-3.74c8.43,0,14,5.57,14,14.15v26.88h-6.68V316.29c0-5.41-3.34-9.06-8.43-9.06-3.34,0-7.79,1.67-11.29,3.66v31.17h-6.68Z" transform="translate(-10.21 -31.3)" style="fill:#007bc4"/><path d="M153.72,330V308.34h-8v-6h8V291.8h6.68v10.5h15.27v6H160.4v21.15c0,4.06,2.7,7,6.6,7a29.28,29.28,0,0,0,9.78-2.31v6.36a28.67,28.67,0,0,1-10.42,2.15C158.18,342.69,153.72,337.36,153.72,330Z" transform="translate(-10.21 -31.3)" style="fill:#007bc4"/><path d="M185,302.3h6.52v9.54c3.74-5.49,10.5-10,18.13-10v7.47c-6.84,0-13.6,3.66-18,8.75v24H185Z" transform="translate(-10.21 -31.3)" style="fill:#007bc4"/><path d="M215.1,321.86c0-13,7.08-21,18.53-21s18.53,8,18.53,21c0,13.52-7.08,21.63-18.53,21.63S215.1,335.37,215.1,321.86Zm30.06,0c0-9.54-4.37-14.79-11.53-14.79s-11.53,5.25-11.53,14.79c0,10,4.37,15.43,11.53,15.43S245.16,331.88,245.16,321.86Z" transform="translate(-10.21 -31.3)" style="fill:#007bc4"/><path d="M260.9,340.38v-6.84c4.13,1.91,9.46,3.5,13,3.5,5.72,0,9.06-2.46,9.06-6,0-4-4.05-5.17-9-6.52-6.52-1.75-13.2-3.42-13.2-12,0-6.12,4.93-11.37,14.15-11.37a35.19,35.19,0,0,1,13,2.78v6.68c-4.53-2-9.46-3.42-13-3.42-5.25,0-7.63,2.46-7.63,5.17,0,3.82,4.77,4.93,9.62,6.2,7.47,2,12.72,4.69,12.72,12.17s-6,12.4-15.58,12.4A32.16,32.16,0,0,1,260.9,340.38Z" transform="translate(-10.21 -31.3)" style="fill:#007bc4"/><path d="M321.41,302.3h6.36v3.9c3.1-2.94,7.71-5.33,11.85-5.33,10.1,0,17.1,7.79,17.1,21,0,13.68-6.92,21.63-17.73,21.63a18,18,0,0,1-10.89-4.37v20.75h-6.68Zm28.31,19.56c0-9.54-4.93-14.79-10.73-14.79-3.5,0-7.47,2.31-10.89,5.57v19.72c3.1,2.78,7.16,4.93,10.58,4.93C344.78,337.28,349.71,331.88,349.71,321.86Z" transform="translate(-10.21 -31.3)" style="fill:#007bc4"/><path d="M365.13,330.68c0-6.84,5.33-12.4,17.25-12.4h7.87v-3.42c0-4.85-3.18-7.79-8.75-7.79-3.74,0-9.06,1.67-13.44,3.58V304A43.71,43.71,0,0,1,382.31,301c9.54,0,14.63,5.25,14.63,13v28h-2.07l-4.21-2.54a22.1,22.1,0,0,1-12,4C369.75,343.48,365.13,338,365.13,330.68Zm25.13,3v-10h-7c-8,0-11.37,3.26-11.37,7,0,3.9,2.86,6.76,7.24,6.76C382.55,337.44,386.68,335.85,390.26,333.7Z" transform="translate(-10.21 -31.3)" style="fill:#007bc4"/><path d="M409.34,302.3h6.52v9.54c3.74-5.49,10.5-10,18.13-10v7.47c-6.84,0-13.6,3.66-18,8.75v24h-6.68Z" transform="translate(-10.21 -31.3)" style="fill:#007bc4"/><path d="M438.92,330.68c0-6.84,5.33-12.4,17.25-12.4H464v-3.42c0-4.85-3.18-7.79-8.75-7.79-3.74,0-9.06,1.67-13.44,3.58V304A43.71,43.71,0,0,1,456.09,301c9.54,0,14.63,5.25,14.63,13v28h-2.07l-4.21-2.54a22.1,22.1,0,0,1-12,4C443.53,343.48,438.92,338,438.92,330.68Zm25.13,3v-10h-7c-8,0-11.37,3.26-11.37,7,0,3.9,2.86,6.76,7.24,6.76C456.33,337.44,460.47,335.85,464,333.7Z" transform="translate(-10.21 -31.3)" style="fill:#007bc4"/><path d="M502.21,330.68c0-6.84,5.33-12.4,17.25-12.4h7.87v-3.42c0-4.85-3.18-7.79-8.75-7.79-3.74,0-9.06,1.67-13.44,3.58V304A43.71,43.71,0,0,1,519.38,301c9.54,0,14.63,5.25,14.63,13v28h-2.07l-4.21-2.54a22.1,22.1,0,0,1-12,4C506.82,343.48,502.21,338,502.21,330.68Zm25.13,3v-10h-7c-8,0-11.37,3.26-11.37,7,0,3.9,2.86,6.76,7.24,6.76C519.62,337.44,523.75,335.85,527.33,333.7Z" transform="translate(-10.21 -31.3)" style="fill:#007bc4"/><path d="M568.52,287.19H575l20,40.87,20-40.87h6.36v54.86h-6.84V302.3l-18.45,37.85H593.8l-18.45-37.77v39.68h-6.84Z" transform="translate(-10.21 -31.3)" style="fill:#007bc4"/><path d="M632.76,321.86c0-13,7.08-21,18.53-21s18.53,8,18.53,21c0,13.52-7.08,21.63-18.53,21.63S632.76,335.37,632.76,321.86Zm30.06,0c0-9.54-4.37-14.79-11.53-14.79s-11.53,5.25-11.53,14.79c0,10,4.37,15.43,11.53,15.43S662.81,331.88,662.81,321.86Z" transform="translate(-10.21 -31.3)" style="fill:#007bc4"/><path d="M678.55,321.86c0-12.88,6.84-21,17.65-21a17.81,17.81,0,0,1,11,4.37V282.58h6.68v59.48H707.5V338a18.08,18.08,0,0,1-12.09,5.49C684.92,343.48,678.55,335.21,678.55,321.86Zm28.63,9.62V311.92c-3.26-2.86-7.55-4.85-10.81-4.85-6.12,0-10.81,5.57-10.81,14.79,0,9.86,4.45,15.43,10.5,15.43C699.55,337.28,703.76,334.9,707.18,331.48Z" transform="translate(-10.21 -31.3)" style="fill:#007bc4"/><path d="M724.19,322c0-12.72,6.84-21.15,18-21.15,9.86,0,16.54,7.55,16.54,18.13a30.31,30.31,0,0,1-.4,4.69H731c.56,8.43,5.17,13.44,11.85,13.44,4.21,0,9.22-1.83,13.52-4.21v6.6a28.31,28.31,0,0,1-13.68,3.82C731.19,343.33,724.19,335.06,724.19,322Zm27.75-3.74c0-6.76-3.74-11.37-9.86-11.37s-10,4-10.89,11.37Z" transform="translate(-10.21 -31.3)" style="fill:#007bc4"/><path d="M769,302.3h6.52v9.54c3.74-5.49,10.5-10,18.13-10v7.47c-6.84,0-13.6,3.66-18,8.75v24H769Z" transform="translate(-10.21 -31.3)" style="fill:#007bc4"/><path d="M801.39,302.3h2.07l4.21,2.46a26.48,26.48,0,0,1,12.8-3.74c8.43,0,14,5.57,14,14.15v26.88h-6.68V316.29c0-5.41-3.34-9.06-8.43-9.06-3.34,0-7.79,1.67-11.29,3.66v31.17h-6.68Z" transform="translate(-10.21 -31.3)" style="fill:#007bc4"/><path d="M845.92,290.61a4.7,4.7,0,0,1,4.69-4.69,4.75,4.75,0,0,1,4.69,4.69,4.7,4.7,0,0,1-4.69,4.69A4.65,4.65,0,0,1,845.92,290.61Zm1.35,11.69h6.68v39.76h-6.68Z" transform="translate(-10.21 -31.3)" style="fill:#007bc4"/><path d="M863.89,340l22.34-31.65H864.36v-6h32.28v2.07L874.06,336h22.58v6H863.89Z" transform="translate(-10.21 -31.3)" style="fill:#007bc4"/><path d="M903.32,330.68c0-6.84,5.33-12.4,17.25-12.4h7.87v-3.42c0-4.85-3.18-7.79-8.75-7.79-3.74,0-9.06,1.67-13.44,3.58V304A43.71,43.71,0,0,1,920.5,301c9.54,0,14.63,5.25,14.63,13v28h-2.07l-4.21-2.54a22.1,22.1,0,0,1-12,4C907.93,343.48,903.32,338,903.32,330.68Zm25.13,3v-10h-7c-8,0-11.37,3.26-11.37,7,0,3.9,2.86,6.76,7.24,6.76C920.74,337.44,924.87,335.85,928.45,333.7Z" transform="translate(-10.21 -31.3)" style="fill:#007bc4"/><path d="M945.14,321.86c0-13,6.44-20.83,17.89-20.83a24.59,24.59,0,0,1,12.4,3.66v7c-3.82-2.39-8.83-4.45-12.56-4.45-6.6,0-10.73,5.49-10.73,14.63,0,9.54,4.13,15.27,10.73,15.27,4,0,8.75-2.07,12.56-4.45v7a24.94,24.94,0,0,1-12.56,3.66C951.5,343.33,945.14,335.21,945.14,321.86Z" transform="translate(-10.21 -31.3)" style="fill:#007bc4"/><path d="M984.5,290.61a4.7,4.7,0,0,1,4.69-4.69,4.75,4.75,0,0,1,4.69,4.69,4.7,4.7,0,0,1-4.69,4.69A4.65,4.65,0,0,1,984.5,290.61Zm1.35,11.69h6.68v39.76h-6.68Z" transform="translate(-10.21 -31.3)" style="fill:#007bc4"/><path d="M1003.26,321.86c0-13,7.08-21,18.53-21s18.53,8,18.53,21c0,13.52-7.08,21.63-18.53,21.63S1003.26,335.37,1003.26,321.86Zm30.06,0c0-9.54-4.37-14.79-11.53-14.79s-11.53,5.25-11.53,14.79c0,10,4.37,15.43,11.53,15.43S1033.32,331.88,1033.32,321.86Zm-15.51-28.07,6.84-10.42h9.3l-11.29,13.2Z" transform="translate(-10.21 -31.3)" style="fill:#007bc4"/><path d="M1050.65,302.3h2.07l4.21,2.46a26.48,26.48,0,0,1,12.8-3.74c8.43,0,14,5.57,14,14.15v26.88H1077V316.29c0-5.41-3.34-9.06-8.43-9.06-3.34,0-7.79,1.67-11.29,3.66v31.17h-6.68Z" transform="translate(-10.21 -31.3)" style="fill:#007bc4"/></g><path d="M10.21,418.23c0-12.72,6.84-21.15,18-21.15,9.86,0,16.54,7.55,16.54,18.13a30.31,30.31,0,0,1-.4,4.69H17.05c.56,8.43,5.17,13.44,11.85,13.44,4.21,0,9.22-1.83,13.52-4.21v6.6a28.3,28.3,0,0,1-13.68,3.82C17.21,439.54,10.21,431.27,10.21,418.23ZM38,414.49c0-6.76-3.74-11.37-9.86-11.37s-10,4-10.89,11.37Z" transform="translate(-10.21 -31.3)" style="fill:#007bc4"/><path d="M77.08,383.4h7.16v54.86H77.08Z" transform="translate(-10.21 -31.3)" style="fill:#007bc4"/><path d="M97.91,398.51H100l4.21,2.46a26.48,26.48,0,0,1,12.8-3.74c8.43,0,14,5.57,14,14.15v26.88h-6.68V412.5c0-5.41-3.34-9.06-8.43-9.06-3.34,0-7.79,1.67-11.29,3.66v31.17H97.91Z" transform="translate(-10.21 -31.3)" style="fill:#007bc4"/><path d="M141,418.07c0-13,6.44-20.83,17.89-20.83a24.59,24.59,0,0,1,12.4,3.66v7c-3.82-2.39-8.83-4.45-12.56-4.45-6.6,0-10.73,5.49-10.73,14.63,0,9.54,4.13,15.27,10.73,15.27,4,0,8.75-2.07,12.56-4.45v7a24.94,24.94,0,0,1-12.56,3.66C147.36,439.54,141,431.42,141,418.07Z" transform="translate(-10.21 -31.3)" style="fill:#007bc4"/><path d="M181.31,426.57V378.79H188v47.47c0,4.06,2,6.36,4.93,6.36a20.44,20.44,0,0,0,4.13-.56v6.2a18.68,18.68,0,0,1-4.77.56C185.13,438.82,181.31,434.13,181.31,426.57Z" transform="translate(-10.21 -31.3)" style="fill:#007bc4"/><path d="M204.53,425.06V398.51h6.68v25.92c0,5.41,3,9.06,7.55,9.06,3.26,0,7.55-2.39,11.37-6.2V398.51h6.68v39.76h-6.36V434c-3.18,3.26-8.11,5.65-12.48,5.65C209.22,439.69,204.53,433.81,204.53,425.06Z" transform="translate(-10.21 -31.3)" style="fill:#007bc4"/><path d="M247.94,436.59v-6.84c4.13,1.91,9.46,3.5,13,3.5,5.72,0,9.06-2.46,9.06-6,0-4-4.05-5.17-9-6.52-6.52-1.75-13.2-3.42-13.2-12,0-6.12,4.93-11.37,14.15-11.37a35.19,35.19,0,0,1,13,2.78v6.68c-4.53-2-9.46-3.42-13-3.42-5.25,0-7.63,2.46-7.63,5.17,0,3.82,4.77,4.93,9.62,6.2,7.47,2,12.72,4.69,12.72,12.17s-6,12.4-15.58,12.4A32.16,32.16,0,0,1,247.94,436.59Z" transform="translate(-10.21 -31.3)" style="fill:#007bc4"/><path d="M286.34,386.82a4.7,4.7,0,0,1,4.69-4.69,4.75,4.75,0,0,1,4.69,4.69,4.7,4.7,0,0,1-4.69,4.69A4.65,4.65,0,0,1,286.34,386.82Zm1.35,11.69h6.68v39.76h-6.68Z" transform="translate(-10.21 -31.3)" style="fill:#007bc4"/><path d="M305.11,418.07c0-13,7.08-21,18.53-21s18.53,8,18.53,21c0,13.52-7.08,21.63-18.53,21.63S305.11,431.58,305.11,418.07Zm30.06,0c0-9.54-4.37-14.79-11.53-14.79s-11.53,5.25-11.53,14.79c0,10,4.37,15.43,11.53,15.43S335.16,428.08,335.16,418.07ZM319.66,390l6.84-10.42h9.3l-11.29,13.2Z" transform="translate(-10.21 -31.3)" style="fill:#007bc4"/><path d="M352.49,398.51h2.07l4.21,2.46a26.48,26.48,0,0,1,12.8-3.74c8.43,0,14,5.57,14,14.15v26.88h-6.68V412.5c0-5.41-3.34-9.06-8.43-9.06-3.34,0-7.79,1.67-11.29,3.66v31.17h-6.68Z" transform="translate(-10.21 -31.3)" style="fill:#007bc4"/><path d="M435.82,390.08H415.94l-2.23-6.68h51.37l-2.23,6.68H443v48.19h-7.16Z" transform="translate(-10.21 -31.3)" style="fill:#007bc4"/><path d="M464,418.23c0-12.72,6.84-21.15,18-21.15,9.86,0,16.54,7.55,16.54,18.13a30.19,30.19,0,0,1-.4,4.69H470.8c.56,8.43,5.17,13.44,11.85,13.44,4.21,0,9.22-1.83,13.52-4.21v6.6a28.3,28.3,0,0,1-13.68,3.82C471,439.54,464,431.27,464,418.23Zm27.75-3.74c0-6.76-3.74-11.37-9.86-11.37s-10,4-10.89,11.37Z" transform="translate(-10.21 -31.3)" style="fill:#007bc4"/><path d="M506.34,418.07c0-13,6.44-20.83,17.89-20.83a24.59,24.59,0,0,1,12.4,3.66v7c-3.82-2.39-8.83-4.45-12.56-4.45-6.6,0-10.73,5.49-10.73,14.63,0,9.54,4.13,15.27,10.73,15.27,4,0,8.75-2.07,12.56-4.45v7a24.94,24.94,0,0,1-12.56,3.66C512.7,439.54,506.34,431.42,506.34,418.07Z" transform="translate(-10.21 -31.3)" style="fill:#007bc4"/><path d="M546.65,398.51h2.07l4.21,2.46a26.48,26.48,0,0,1,12.8-3.74c8.43,0,14,5.57,14,14.15v26.88h-6.68V412.5c0-5.41-3.34-9.06-8.43-9.06-3.34,0-7.79,1.67-11.29,3.66v31.17h-6.68Z" transform="translate(-10.21 -31.3)" style="fill:#007bc4"/><path d="M589.74,418.07c0-13,7.08-21,18.53-21s18.53,8,18.53,21c0,13.52-7.08,21.63-18.53,21.63S589.74,431.58,589.74,418.07Zm30.06,0c0-9.54-4.37-14.79-11.53-14.79s-11.53,5.25-11.53,14.79c0,10,4.37,15.43,11.53,15.43S619.8,428.08,619.8,418.07Z" transform="translate(-10.21 -31.3)" style="fill:#007bc4"/><path d="M637.13,426.57V378.79h6.68v47.47c0,4.06,2,6.36,4.93,6.36a20.44,20.44,0,0,0,4.13-.56v6.2a18.68,18.68,0,0,1-4.77.56C640.95,438.82,637.13,434.13,637.13,426.57Z" transform="translate(-10.21 -31.3)" style="fill:#007bc4"/><path d="M659.08,418.07c0-13,7.08-21,18.53-21s18.53,8,18.53,21c0,13.52-7.08,21.63-18.53,21.63S659.08,431.58,659.08,418.07Zm30.06,0c0-9.54-4.37-14.79-11.53-14.79s-11.53,5.25-11.53,14.79c0,10,4.37,15.43,11.53,15.43S689.13,428.08,689.13,418.07ZM673.63,390l6.84-10.42h9.3l-11.29,13.2Z" transform="translate(-10.21 -31.3)" style="fill:#007bc4"/><path d="M714.65,417.91l-13.76-19.4h7.79l10.18,14.39L729,398.51h7.39L722.6,418.07l14.31,20.2h-7.79l-10.73-15.11-10.58,15.11h-7.39Z" transform="translate(-10.21 -31.3)" style="fill:#007bc4"/><path d="M743.44,386.82a4.7,4.7,0,0,1,4.69-4.69,4.75,4.75,0,0,1,4.69,4.69,4.7,4.7,0,0,1-4.69,4.69A4.65,4.65,0,0,1,743.44,386.82Zm1.35,11.69h6.68v39.76h-6.68Z" transform="translate(-10.21 -31.3)" style="fill:#007bc4"/><path d="M762.2,418.07c0-13,6.44-20.83,17.89-20.83a24.59,24.59,0,0,1,12.4,3.66v7c-3.82-2.39-8.83-4.45-12.56-4.45-6.6,0-10.73,5.49-10.73,14.63,0,9.54,4.13,15.27,10.73,15.27,4,0,8.75-2.07,12.56-4.45v7a24.94,24.94,0,0,1-12.56,3.66C768.56,439.54,762.2,431.42,762.2,418.07Z" transform="translate(-10.21 -31.3)" style="fill:#007bc4"/><path d="M800.44,426.89c0-6.84,5.33-12.4,17.25-12.4h7.87v-3.42c0-4.85-3.18-7.79-8.75-7.79-3.74,0-9.06,1.67-13.44,3.58v-6.68a43.71,43.71,0,0,1,14.23-2.94c9.54,0,14.63,5.25,14.63,13v28h-2.07L826,435.72a22.09,22.09,0,0,1-12,4C805.05,439.69,800.44,434.21,800.44,426.89Zm25.13,3v-10h-7c-8,0-11.37,3.26-11.37,7,0,3.9,2.86,6.76,7.24,6.76C817.86,433.65,822,432.06,825.57,429.91Z" transform="translate(-10.21 -31.3)" style="fill:#007bc4"/></g></g></svg>